<?xml version="1.0" encoding="UTF-8"?>
<svg version="1.1" xmlns="http://www.w3.org/2000/svg" width="1024" height="1024">
<path d="M0 0 C1.20946289 0.00182281 2.41892578 0.00364563 3.66503906 0.00552368 C96.87407889 0.24041316 188.66111307 24.57046924 291.625 94.3125 C292.20266113 94.75126465 292.78032227 95.1900293 293.37548828 95.64208984 C302.78464214 102.82407 311.78629845 110.44189281 320.625 118.3125 C321.16447266 118.79267578 321.70394531 119.27285156 322.25976562 119.76757812 C329.3864746 126.14877832 336.22196579 132.8134524 343 139.5625 C343.74934814 140.30717529 344.49869629 141.05185059 345.27075195 141.8190918 C349.92680213 146.48863626 354.33759132 151.30405067 358.625 156.3125 C359.61000031 157.4419968 360.59564942 158.57092822 361.58203125 159.69921875 C368.22642387 167.35762887 374.57650717 175.17376775 380.625 183.3125 C381.11049316 183.96138184 381.59598633 184.61026367 382.09619141 185.27880859 C439.24721971 261.93075541 472.53256128 357.08370628 474.01611328 469.61474609 C473.99902267 473.11292941 474.00922759 476.61042712 474.0264349 480.10858727 C474.30204572 546.4232928 461.49758063 613.93840129 433.625 674.3125 C433.17398926 675.29138184 432.72297852 676.27026367 432.25830078 677.27880859 C418.43782085 707.06795683 402.33947872 735.02220502 382.625 761.3125 C382.16609375 761.92448242 381.7071875 762.53646484 381.234375 763.16699219 C373.09448866 773.97029722 364.61728934 784.39585303 355.3984375 794.29296875 C353.34736929 796.50001173 351.37323463 798.76135031 349.41015625 801.046875 C345.05616043 806.04224425 340.381923 810.70170719 335.6875 815.375 C334.83220703 816.23416016 333.97691406 817.09332031 333.09570312 817.97851562 C328.10077037 822.96582835 322.99576244 827.73429675 317.625 832.3125 C316.49529031 833.29725614 315.36635499 834.28290149 314.23828125 835.26953125 C306.57987113 841.91392387 298.76373225 848.26400717 290.625 854.3125 C289.97611816 854.79799316 289.32723633 855.28348633 288.65869141 855.78369141 C224.87082883 903.34336981 149.9561289 933.05679639 71.1875 943.5 C70.03628662 943.65484863 68.88507324 943.80969727 67.69897461 943.96923828 C45.61383235 946.74517287 23.49382057 947.69539916 1.25 947.625 C0.04053711 947.62317719 -1.16892578 947.62135437 -2.41503906 947.61947632 C-101.72116237 947.36922202 -199.05293944 919.63000934 -282.375 859.3125 C-283.09800293 858.78914062 -283.82100586 858.26578125 -284.56591797 857.7265625 C-296.97734278 848.70631556 -308.55980082 838.87143598 -319.8984375 828.54296875 C-321.28282986 827.29614219 -322.67392871 826.05633015 -324.08862305 824.84399414 C-329.79795373 819.93954088 -335.12889545 814.70760728 -340.4375 809.375 C-341.29666016 808.51970703 -342.15582031 807.66441406 -343.04101562 806.78320312 C-348.02832835 801.78827037 -352.79679675 796.68326244 -357.375 791.3125 C-358.35975614 790.18279031 -359.34540149 789.05385499 -360.33203125 787.92578125 C-366.97642387 780.26737113 -373.32650717 772.45123225 -379.375 764.3125 C-379.86049316 763.66361816 -380.34598633 763.01473633 -380.84619141 762.34619141 C-438.39781709 685.15695645 -472.25987877 589.03129214 -472.578125 492.44921875 C-472.58095238 491.76406504 -472.58377975 491.07891132 -472.58669281 490.37299538 C-472.60156071 486.72986111 -472.6108619 483.08676501 -472.61523438 479.44360352 C-472.61956745 476.51508776 -472.63327351 473.58687523 -472.65625 470.65844727 C-473.17419593 403.17029778 -460.77363406 334.82606987 -432.375 273.3125 C-431.92398926 272.33361816 -431.47297852 271.35473633 -431.00830078 270.34619141 C-417.18782085 240.55704317 -401.08947872 212.60279498 -381.375 186.3125 C-380.91609375 185.70051758 -380.4571875 185.08853516 -379.984375 184.45800781 C-371.84448866 173.65470278 -363.36728934 163.22914697 -354.1484375 153.33203125 C-352.09736929 151.12498827 -350.12323463 148.86364969 -348.16015625 146.578125 C-343.80616043 141.58275575 -339.131923 136.92329281 -334.4375 132.25 C-333.15456055 130.96125977 -333.15456055 130.96125977 -331.84570312 129.64648438 C-326.85077037 124.65917165 -321.74576244 119.89070325 -316.375 115.3125 C-315.24529031 114.32774386 -314.11635499 113.34209851 -312.98828125 112.35546875 C-305.32987113 105.71107613 -297.51373225 99.36099283 -289.375 93.3125 C-288.72611816 92.82700684 -288.07723633 92.34151367 -287.40869141 91.84130859 C-223.62082883 44.28163019 -148.7061289 14.56820361 -69.9375 4.125 C-68.78628662 3.97015137 -67.63507324 3.81530273 -66.44897461 3.65576172 C-44.36383235 0.87982713 -22.24382057 -0.07039916 0 0 Z " fill="#000001" transform="translate(511.375,52.6875)"/>
<path d="M0 0 C39.93 0 79.86 0 121 0 C127 16 127 16 129 23 C129.60140565 24.76121406 130.22279341 26.51577489 130.8671875 28.26171875 C131.21620117 29.20837402 131.56521484 30.1550293 131.92480469 31.13037109 C133.28190315 34.75238185 134.66181061 38.36536189 136.04418945 41.9777832 C140.53176272 53.74765292 144.62439463 65.61712151 148.54931641 77.58325195 C151.77635233 87.41875383 155.25357461 97.12275653 158.99316406 106.77416992 C161.99357881 114.52475633 164.80286483 122.2313822 167.1328125 130.2109375 C168.25210429 133.81082192 169.6804542 137.24524414 171.12890625 140.72265625 C171.95824429 142.89083597 172.54548494 144.98966143 173.0625 147.25 C173.97610667 150.90442669 175.29632808 153.66080304 177 157 C178.48535876 160.95557497 179.70292949 164.99690478 180.90234375 169.046875 C182.84966468 175.58486816 185.10551954 181.81011658 187.79296875 188.078125 C189.30924409 191.74859088 190.54049028 195.47417495 191.765625 199.25 C193.4791639 204.45568781 195.26884808 209.63395499 197.0625 214.8125 C197.40321533 215.80354736 197.74393066 216.79459473 198.0949707 217.81567383 C199.88441867 222.97574985 201.80607049 227.99988157 204 233 C204.50297453 234.38743216 204.98598598 235.78247812 205.4375 237.1875 C205.68371094 237.94160156 205.92992187 238.69570313 206.18359375 239.47265625 C206.58771484 240.72369141 206.58771484 240.72369141 207 242 C209.52323745 249.9832814 209.52323745 249.9832814 212.625 257.75 C214 261 214 261 216 269 C216.33 180.56 216.66 92.12 217 1 C256.6 1 296.2 1 337 1 C337 202.63 337 404.26 337 612 C330.19328524 612 324.28144403 611.74167788 317.6875 610.6875 C305.65569069 608.89655457 293.5720532 607.98758416 281.44799805 607.09057617 C274.1453304 606.54327806 266.88038347 605.9172277 259.6171875 604.97265625 C248.33244341 603.50540242 237.12020065 602.81403759 225.75 602.4375 C224.51636719 602.39431641 223.28273438 602.35113281 222.01171875 602.30664062 C219.00789133 602.20185595 216.00400025 602.0996846 213 602 C207.72169051 589.55609327 207.72169051 589.55609327 205.75 583.375 C200.83415129 568.31632419 195.78592754 553.27275627 189.98046875 538.53125 C188.50908146 534.73260871 187.2523477 530.8750654 186 527 C185.33494906 524.99946215 184.66817933 522.99949514 184 521 C182 515 182 515 181.35864258 513.02539062 C179.31440374 506.7801536 177.01891968 500.64292564 174.6875 494.5 C168.82754346 478.9601842 163.30903575 463.3264813 158.19921875 447.5234375 C156.80796082 443.24862262 155.26148137 439.06276598 153.625 434.875 C151.26365572 428.81516468 149.20243802 422.69616646 147.2109375 416.5078125 C146.0439496 412.98636131 146.0439496 412.98636131 144.5390625 409.609375 C142.7905657 405.50883936 141.38056432 401.36016866 140 397.125 C139.7525 396.37347656 139.505 395.62195313 139.25 394.84765625 C138.25231355 391.81822292 137.25794049 388.7877086 136.26538086 385.7565918 C133.40541536 377.08776485 130.19955103 368.54802579 127 360 C126.57976562 358.87207031 126.15953125 357.74414062 125.7265625 356.58203125 C125.38367188 355.68871094 125.04078125 354.79539062 124.6875 353.875 C124.40261719 353.12992188 124.11773437 352.38484375 123.82421875 351.6171875 C123.10135272 349.80325026 123.10135272 349.80325026 121 349 C121 432.82 121 516.64 121 603 C110.77 603.33 100.54 603.66 90 604 C81.2968558 604.58265647 81.2968558 604.58265647 72.61010742 605.30224609 C70.34427963 605.50848505 68.07759895 605.7022505 65.81054688 605.89453125 C59.83003083 606.41277312 53.9224832 607.00682586 48 608 C46.14794974 608.17847328 44.29345518 608.33303608 42.4375 608.46484375 C41.39980469 608.5417041 40.36210937 608.61856445 39.29296875 608.69775391 C38.20628906 608.77687012 37.11960937 608.85598633 36 608.9375 C27.95302076 609.54427194 20.01826783 610.2574803 12.0625 611.6328125 C8.06841033 612.1116957 4.02269579 612 0 612 C0 410.04 0 208.08 0 0 Z " fill="#E20913" transform="translate(350,211)"/>
<path d="M0 0 C1.20946289 0.00182281 2.41892578 0.00364563 3.66503906 0.00552368 C96.87407889 0.24041316 188.66111307 24.57046924 291.625 94.3125 C292.20266113 94.75126465 292.78032227 95.1900293 293.37548828 95.64208984 C302.78464214 102.82407 311.78629845 110.44189281 320.625 118.3125 C321.16447266 118.79267578 321.70394531 119.27285156 322.25976562 119.76757812 C329.3864746 126.14877832 336.22196579 132.8134524 343 139.5625 C343.74934814 140.30717529 344.49869629 141.05185059 345.27075195 141.8190918 C349.92680213 146.48863626 354.33759132 151.30405067 358.625 156.3125 C359.61000031 157.4419968 360.59564942 158.57092822 361.58203125 159.69921875 C368.22642387 167.35762887 374.57650717 175.17376775 380.625 183.3125 C381.11049316 183.96138184 381.59598633 184.61026367 382.09619141 185.27880859 C439.24721971 261.93075541 472.53256128 357.08370628 474.01611328 469.61474609 C473.99902267 473.11292941 474.00922759 476.61042712 474.0264349 480.10858727 C474.30204572 546.4232928 461.49758063 613.93840129 433.625 674.3125 C433.17398926 675.29138184 432.72297852 676.27026367 432.25830078 677.27880859 C418.43782085 707.06795683 402.33947872 735.02220502 382.625 761.3125 C382.16609375 761.92448242 381.7071875 762.53646484 381.234375 763.16699219 C373.09448866 773.97029722 364.61728934 784.39585303 355.3984375 794.29296875 C353.34736929 796.50001173 351.37323463 798.76135031 349.41015625 801.046875 C345.05616043 806.04224425 340.381923 810.70170719 335.6875 815.375 C334.83220703 816.23416016 333.97691406 817.09332031 333.09570312 817.97851562 C328.10077037 822.96582835 322.99576244 827.73429675 317.625 832.3125 C316.49529031 833.29725614 315.36635499 834.28290149 314.23828125 835.26953125 C306.57987113 841.91392387 298.76373225 848.26400717 290.625 854.3125 C289.97611816 854.79799316 289.32723633 855.28348633 288.65869141 855.78369141 C224.87082883 903.34336981 149.9561289 933.05679639 71.1875 943.5 C70.03628662 943.65484863 68.88507324 943.80969727 67.69897461 943.96923828 C45.61383235 946.74517287 23.49382057 947.69539916 1.25 947.625 C0.04053711 947.62317719 -1.16892578 947.62135437 -2.41503906 947.61947632 C-101.72116237 947.36922202 -199.05293944 919.63000934 -282.375 859.3125 C-283.09800293 858.78914062 -283.82100586 858.26578125 -284.56591797 857.7265625 C-296.97734278 848.70631556 -308.55980082 838.87143598 -319.8984375 828.54296875 C-321.28282986 827.29614219 -322.67392871 826.05633015 -324.08862305 824.84399414 C-329.79795373 819.93954088 -335.12889545 814.70760728 -340.4375 809.375 C-341.29666016 808.51970703 -342.15582031 807.66441406 -343.04101562 806.78320312 C-348.02832835 801.78827037 -352.79679675 796.68326244 -357.375 791.3125 C-358.35975614 790.18279031 -359.34540149 789.05385499 -360.33203125 787.92578125 C-366.97642387 780.26737113 -373.32650717 772.45123225 -379.375 764.3125 C-379.86049316 763.66361816 -380.34598633 763.01473633 -380.84619141 762.34619141 C-438.39781709 685.15695645 -472.25987877 589.03129214 -472.578125 492.44921875 C-472.58095238 491.76406504 -472.58377975 491.07891132 -472.58669281 490.37299538 C-472.60156071 486.72986111 -472.6108619 483.08676501 -472.61523438 479.44360352 C-472.61956745 476.51508776 -472.63327351 473.58687523 -472.65625 470.65844727 C-473.17419593 403.17029778 -460.77363406 334.82606987 -432.375 273.3125 C-431.92398926 272.33361816 -431.47297852 271.35473633 -431.00830078 270.34619141 C-417.18782085 240.55704317 -401.08947872 212.60279498 -381.375 186.3125 C-380.91609375 185.70051758 -380.4571875 185.08853516 -379.984375 184.45800781 C-371.84448866 173.65470278 -363.36728934 163.22914697 -354.1484375 153.33203125 C-352.09736929 151.12498827 -350.12323463 148.86364969 -348.16015625 146.578125 C-343.80616043 141.58275575 -339.131923 136.92329281 -334.4375 132.25 C-333.15456055 130.96125977 -333.15456055 130.96125977 -331.84570312 129.64648438 C-326.85077037 124.65917165 -321.74576244 119.89070325 -316.375 115.3125 C-315.24529031 114.32774386 -314.11635499 113.34209851 -312.98828125 112.35546875 C-305.32987113 105.71107613 -297.51373225 99.36099283 -289.375 93.3125 C-288.72611816 92.82700684 -288.07723633 92.34151367 -287.40869141 91.84130859 C-223.62082883 44.28163019 -148.7061289 14.56820361 -69.9375 4.125 C-68.78628662 3.97015137 -67.63507324 3.81530273 -66.44897461 3.65576172 C-44.36383235 0.87982713 -22.24382057 -0.07039916 0 0 Z M-273.79296875 152.9765625 C-275.20559541 154.25455152 -276.62444736 155.52621969 -278.07104492 156.765625 C-283.57711314 161.49011002 -288.75461878 166.50593706 -293.88354492 171.63574219 C-295.30168284 173.05169947 -296.72796665 174.45948289 -298.15429688 175.8671875 C-303.59437352 181.29592277 -308.64391528 186.87236513 -313.42285156 192.89282227 C-315.26762358 195.17940749 -317.19030382 197.34645142 -319.1875 199.5 C-335.19381646 217.4245587 -348.46800399 238.43876523 -360.23925781 259.31884766 C-361.37103417 261.30553849 -362.53724405 263.26830655 -363.7109375 265.23046875 C-414.23271297 351.10101703 -425.80612054 461.1944828 -400.59008789 569.45361328 C-380.32586262 647.37921341 -334.21529794 728.25221076 -269.69140625 778.4921875 C-267.41887715 780.27801981 -265.3102924 782.16488889 -263.1875 784.125 C-249.47849646 796.36689965 -233.79284806 806.39536444 -218.375 816.3125 C-217.07018677 817.15929321 -217.07018677 817.15929321 -215.73901367 818.02319336 C-213.38483082 819.55190383 -213.38483082 819.55190383 -210.375 819.3125 C-210.375 819.9725 -210.375 820.6325 -210.375 821.3125 C-195.01893042 829.80619538 -195.01893042 829.80619538 -179.4375 837.875 C-178.81939453 838.184375 -178.20128906 838.49375 -177.56445312 838.8125 C-173.56002415 840.79053846 -169.49832292 842.59998082 -165.375 844.3125 C-164.54766357 844.65659912 -163.72032715 845.00069824 -162.86791992 845.35522461 C-66.40062875 885.17793121 40.25034358 890.36319565 157.75 848.5 C211.33161856 825.84349263 257.85473127 794.03164753 299 753.0625 C299.74926758 752.31790527 300.49853516 751.57331055 301.27050781 750.80615234 C305.92635488 746.13681308 310.34079077 741.32356578 314.625 736.3125 C315.51408824 735.29146227 316.40339361 734.27061355 317.29296875 733.25 C347.79506676 697.68786402 371.40160685 656.78361076 388.625 613.3125 C388.94952148 612.50280762 389.27404297 611.69311523 389.60839844 610.85888672 C400.4141614 583.69455943 407.34574957 554.77372774 411.875 525.9375 C412.10171387 524.49769775 412.10171387 524.49769775 412.33300781 523.02880859 C412.81102396 519.79437652 413.22964314 516.55813953 413.625 513.3125 C413.71187073 512.60098785 413.79874146 511.88947571 413.88824463 511.15640259 C415.71649306 495.69423481 416.0255847 480.30820869 416 464.75 C415.99945618 463.50092865 415.99891235 462.2518573 415.99835205 460.9649353 C415.80662828 364.83080448 381.3209531 270.47263043 290.9375 166.5 C289.74338501 165.29887573 289.74338501 165.29887573 288.52514648 164.07348633 C283.71959238 159.28091616 278.7868193 154.71748265 273.625 150.3125 C272.60387166 149.42351583 271.58301704 148.5342171 270.5625 147.64453125 C235.00036402 117.14243324 194.09611076 93.53589315 150.625 76.3125 C149.81530762 75.98797852 149.00561523 75.66345703 148.17138672 75.32910156 C57.85908126 39.40355276 -45.89714929 40.29502961 -273.79296875 152.9765625 Z " fill="#E00B15" transform="translate(511.375,52.6875)"/>
<path d="M0 0 C1.20946289 0.00182281 2.41892578 0.00364563 3.66503906 0.00552368 C96.87407889 0.24041316 188.66111307 24.57046924 291.625 94.3125 C292.20266113 94.75126465 292.78032227 95.1900293 293.37548828 95.64208984 C302.78464214 102.82407 311.78629845 110.44189281 320.625 118.3125 C321.16447266 118.79267578 321.70394531 119.27285156 322.25976562 119.76757812 C329.3864746 126.14877832 336.22196579 132.8134524 343 139.5625 C343.74934814 140.30717529 344.49869629 141.05185059 345.27075195 141.8190918 C349.92680213 146.48863626 354.33759132 151.30405067 358.625 156.3125 C359.61000031 157.4419968 360.59564942 158.57092822 361.58203125 159.69921875 C368.22642387 167.35762887 374.57650717 175.17376775 380.625 183.3125 C381.11049316 183.96138184 381.59598633 184.61026367 382.09619141 185.27880859 C439.24721971 261.93075541 472.53256128 357.08370628 474.01611328 469.61474609 C473.99902267 473.11292941 474.00922759 476.61042712 474.0264349 480.10858727 C474.30204572 546.4232928 461.49758063 613.93840129 433.625 674.3125 C433.17398926 675.29138184 432.72297852 676.27026367 432.25830078 677.27880859 C418.43782085 707.06795683 402.33947872 735.02220502 382.625 761.3125 C382.16609375 761.92448242 381.7071875 762.53646484 381.234375 763.16699219 C373.09448866 773.97029722 364.61728934 784.39585303 355.3984375 794.29296875 C353.34736929 796.50001173 351.37323463 798.76135031 349.41015625 801.046875 C345.05616043 806.04224425 340.381923 810.70170719 335.6875 815.375 C334.83220703 816.23416016 333.97691406 817.09332031 333.09570312 817.97851562 C328.10077037 822.96582835 322.99576244 827.73429675 317.625 832.3125 C316.49529031 833.29725614 315.36635499 834.28290149 314.23828125 835.26953125 C306.57987113 841.91392387 298.76373225 848.26400717 290.625 854.3125 C289.97611816 854.79799316 289.32723633 855.28348633 288.65869141 855.78369141 C224.87082883 903.34336981 149.9561289 933.05679639 71.1875 943.5 C70.03628662 943.65484863 68.88507324 943.80969727 67.69897461 943.96923828 C45.61383235 946.74517287 23.49382057 947.69539916 1.25 947.625 C0.04053711 947.62317719 -1.16892578 947.62135437 -2.41503906 947.61947632 C-101.72116237 947.36922202 -199.05293944 919.63000934 -282.375 859.3125 C-283.09800293 858.78914062 -283.82100586 858.26578125 -284.56591797 857.7265625 C-296.97734278 848.70631556 -308.55980082 838.87143598 -319.8984375 828.54296875 C-321.28282986 827.29614219 -322.67392871 826.05633015 -324.08862305 824.84399414 C-329.79795373 819.93954088 -335.12889545 814.70760728 -340.4375 809.375 C-341.29666016 808.51970703 -342.15582031 807.66441406 -343.04101562 806.78320312 C-348.02832835 801.78827037 -352.79679675 796.68326244 -357.375 791.3125 C-358.35975614 790.18279031 -359.34540149 789.05385499 -360.33203125 787.92578125 C-366.97642387 780.26737113 -373.32650717 772.45123225 -379.375 764.3125 C-379.86049316 763.66361816 -380.34598633 763.01473633 -380.84619141 762.34619141 C-438.39781709 685.15695645 -472.25987877 589.03129214 -472.578125 492.44921875 C-472.58095238 491.76406504 -472.58377975 491.07891132 -472.58669281 490.37299538 C-472.60156071 486.72986111 -472.6108619 483.08676501 -472.61523438 479.44360352 C-472.61956745 476.51508776 -472.63327351 473.58687523 -472.65625 470.65844727 C-473.17419593 403.17029778 -460.77363406 334.82606987 -432.375 273.3125 C-431.92398926 272.33361816 -431.47297852 271.35473633 -431.00830078 270.34619141 C-417.18782085 240.55704317 -401.08947872 212.60279498 -381.375 186.3125 C-380.91609375 185.70051758 -380.4571875 185.08853516 -379.984375 184.45800781 C-371.84448866 173.65470278 -363.36728934 163.22914697 -354.1484375 153.33203125 C-352.09736929 151.12498827 -350.12323463 148.86364969 -348.16015625 146.578125 C-343.80616043 141.58275575 -339.131923 136.92329281 -334.4375 132.25 C-333.15456055 130.96125977 -333.15456055 130.96125977 -331.84570312 129.64648438 C-326.85077037 124.65917165 -321.74576244 119.89070325 -316.375 115.3125 C-315.24529031 114.32774386 -314.11635499 113.34209851 -312.98828125 112.35546875 C-305.32987113 105.71107613 -297.51373225 99.36099283 -289.375 93.3125 C-288.72611816 92.82700684 -288.07723633 92.34151367 -287.40869141 91.84130859 C-223.62082883 44.28163019 -148.7061289 14.56820361 -69.9375 4.125 C-68.78628662 3.97015137 -67.63507324 3.81530273 -66.44897461 3.65576172 C-44.36383235 0.87982713 -22.24382057 -0.07039916 0 0 Z M-272.375 107.3125 C-272.93525879 107.74272461 -273.49551758 108.17294922 -274.07275391 108.61621094 C-280.98830059 113.93063978 -287.7127644 119.34903616 -294.13671875 125.2578125 C-296.24539527 127.19352603 -298.39286328 129.07069976 -300.5625 130.9375 C-303.72550338 133.68848891 -306.67625576 136.58945689 -309.609375 139.58203125 C-311.38114508 141.31852272 -313.22530373 142.90533626 -315.125 144.5 C-320.16101252 148.84707825 -324.51788912 153.79902558 -328.95166016 158.74072266 C-330.33069094 160.26357003 -331.72873683 161.76564412 -333.13671875 163.26171875 C-339.52432295 170.06825689 -345.34616723 177.18715979 -351.03076172 184.58740234 C-352.6964318 186.72500219 -354.42456345 188.8097565 -356.14379883 190.90429688 C-377.67387312 217.46035756 -396.96000049 249.01121057 -409.34228516 280.82568359 C-410.38986979 283.34830701 -411.57448372 285.74570754 -412.828125 288.171875 C-454.4809467 369.88771604 -456.9885608 476.6577525 -427.375 603.3125 C-410.49222718 655.10106485 -384.56010897 702.89774914 -350.625 745.44921875 C-348.375 748.3125 -348.375 748.3125 -346.375 751.3125 C-345.715 751.3125 -345.055 751.3125 -344.375 751.3125 C-343.88 752.7975 -343.88 752.7975 -343.375 754.3125 C-342.715 754.6425 -342.055 754.9725 -341.375 755.3125 C-340.25 757.375 -340.25 757.375 -339.375 759.3125 C-338.715 759.3125 -338.055 759.3125 -337.375 759.3125 C-337.15199219 760.02792969 -336.92898438 760.74335937 -336.69921875 761.48046875 C-335.0654986 764.97441302 -332.97571681 766.96754094 -330.1875 769.625 C-326.97062154 772.70690454 -323.9279107 775.78685987 -321.03125 779.171875 C-317.29925272 783.48918347 -313.24543061 787.37418618 -309.0625 791.25 C-308.31121826 791.95020264 -307.55993652 792.65040527 -306.78588867 793.37182617 C-304.6527701 795.35624564 -302.51421336 797.33465658 -300.375 799.3125 C-299.43914062 800.18648437 -298.50328125 801.06046875 -297.5390625 801.9609375 C-291.35115709 807.6554551 -284.78816214 812.82176197 -278.13330078 817.95263672 C-276.46588342 819.2422111 -274.80789227 820.54289842 -273.15234375 821.84765625 C-247.65860018 841.84995343 -219.5981561 858.38840245 -190.375 872.3125 C-189.2914624 872.83142822 -189.2914624 872.83142822 -188.18603516 873.36083984 C-129.63155331 901.17203525 -64.73811475 914.59097305 -0.0625 914.5 C0.8086142 914.49906342 1.67972839 914.49812683 2.57723999 914.49716187 C91.9724363 914.29046659 179.62070428 887.56468411 253.625 837.3125 C254.376604 836.80235352 255.12820801 836.29220703 255.90258789 835.76660156 C265.95303058 828.88840837 275.5131068 821.54678864 284.87353516 813.75976562 C287.28607287 811.76624408 289.74091065 809.82648929 292.1875 807.875 C303.22750941 798.79765893 313.35863906 788.67885844 323.5 778.625 C324.80106689 777.34351074 324.80106689 777.34351074 326.12841797 776.03613281 C331.31403458 770.85746344 336.08158165 765.49368917 340.64599609 759.7590332 C342.48283855 757.48824634 344.39086007 755.32957035 346.375 753.1875 C363.13095518 734.4777872 377.08814616 712.99687041 389.625 691.3125 C390.01993652 690.63832031 390.41487305 689.96414063 390.82177734 689.26953125 C427.05722581 627.37580723 449.54633535 553.26476391 449.828125 481.2265625 C449.83518463 480.01906342 449.84224426 478.81156433 449.84951782 477.56747437 C449.86703748 473.69077527 449.87350287 469.81423741 449.875 465.9375 C449.87529457 465.2761908 449.87558914 464.61488159 449.87589264 463.93353271 C449.87733464 443.89307482 449.62435822 424.16654055 446.625 404.3125 C446.52554077 403.63753479 446.42608154 402.96256958 446.3236084 402.26715088 C440.26664485 361.20467257 429.34911563 321.35442484 412.625 283.3125 C412.31876709 282.60488525 412.01253418 281.89727051 411.69702148 281.16821289 C393.12203593 238.66273247 367.20049111 200.06639783 336.625 165.3125 C335.81160156 164.38566406 334.99820313 163.45882812 334.16015625 162.50390625 C328.0262542 155.67230918 321.58813298 149.14377622 315.125 142.625 C314.25883057 141.74577881 313.39266113 140.86655762 312.50024414 139.96069336 C307.26829168 134.72184703 301.85970166 129.89488787 296.06494141 125.28491211 C293.79592769 123.45067539 291.63972112 121.54474164 289.5 119.5625 C267.53429845 99.86372139 241.78870366 83.46791873 215.87548828 69.52587891 C213.62788755 68.31405686 211.39015026 67.08526309 209.15234375 65.85546875 C156.64111381 37.28674509 96.24836614 20.49100064 36.625 16.3125 C35.3973291 16.22637451 34.1696582 16.14024902 32.90478516 16.05151367 C22.55769165 15.36497991 12.24353186 15.10901225 1.875 15.125 C1.07652649 15.12593658 0.27805298 15.12687317 -0.5446167 15.12783813 C-98.45221206 15.37393459 -194.77289793 47.1996706 -272.375 107.3125 Z " fill="#000000" transform="translate(511.375,52.6875)"/>
<path d="M0 0 C39.6 0 79.2 0 120 0 C120 201.63 120 403.26 120 611 C108.75 611 108.75 611 105 610 C105 609.67 105 609.34 105 609 C109.85313132 608.91632532 114.20713023 609.1279449 119 610 C118.67386719 609.17757812 118.34773437 608.35515625 118.01171875 607.5078125 C115.68521057 601.56457922 113.4748781 595.66563055 111.7734375 589.51171875 C110.91024555 586.70852468 109.87998904 583.98248383 108.83837891 581.24145508 C107.0030344 576.33455413 105.32268152 571.37104717 103.60546875 566.421875 C103.16654297 565.16117188 103.16654297 565.16117188 102.71875 563.875 C102.46029297 563.12992188 102.20183594 562.38484375 101.93554688 561.6171875 C101.16954881 559.47431192 100.38190923 557.34328018 99.58032227 555.21362305 C98.01619165 551.05750456 96.49973196 546.88536301 94.99609375 542.70703125 C94.716483 541.93072861 94.43687225 541.15442596 94.14878845 540.354599 C93.2440787 537.84090535 92.34060516 535.32677056 91.4375 532.8125 C91.12830627 531.95217163 90.81911255 531.09184326 90.50054932 530.20544434 C85.97371067 517.60137413 81.52451239 504.97399162 77.19702148 492.30004883 C74.87571132 485.50341997 72.48084102 478.74001749 70 472 C65.65602308 460.18400648 61.40023679 448.3449699 57.3125 436.4375 C53.43083014 425.13345304 49.51880204 413.84065987 45.5625 402.5625 C45.14967773 401.3856514 45.14967773 401.3856514 44.72851562 400.18502808 C40.57275031 388.35171142 36.29453313 376.56865453 31.94677734 364.8046875 C28.49505656 355.43304631 25.21845263 346.00910609 21.99072266 336.55834961 C16.97191123 321.91175531 11.70346034 307.35404289 6.44567871 292.79187012 C5.93999921 291.39063608 5.44530104 289.98539547 4.96108055 288.57660198 C4.03106839 285.96481315 4.03106839 285.96481315 2.75753975 283.4112978 C-2.588153 271.20327735 -1.62171068 258.53417694 -1.47583008 245.44189453 C-1.46454371 242.76004251 -1.4552673 240.07825291 -1.44848633 237.39639282 C-1.42998085 231.64624213 -1.39314054 225.89645082 -1.34345436 220.14648819 C-1.27164614 211.833301 -1.22809907 203.52014952 -1.19120713 195.20674275 C-1.13058033 181.71531265 -1.04744459 168.22412054 -0.94995117 154.73291016 C-0.85535549 141.63595646 -0.77154454 128.53900566 -0.7019043 115.44189453 C-0.69754681 114.62488567 -0.69318932 113.80787681 -0.68869978 112.96611011 C-0.6546994 106.57552683 -0.62131976 100.18494034 -0.58813608 93.79435277 C-0.425631 62.52930267 -0.20903938 31.26484052 0 0 Z " fill="#AA050F" transform="translate(567,212)"/>
<path d="M0 0 C39.93 0 79.86 0 121 0 C121 0.33 121 0.66 121 1 C81.4 1 41.8 1 1 1 C1 3.31 1 5.62 1 8 C1.99 8.33 2.98 8.66 4 9 C4.96386719 10.92333984 4.96386719 10.92333984 5.796875 13.4609375 C6.11197021 14.39719971 6.42706543 15.33346191 6.75170898 16.2980957 C7.08114502 17.31347412 7.41058105 18.32885254 7.75 19.375 C8.46330892 21.50181746 9.1781736 23.62811372 9.89453125 25.75390625 C10.2498291 26.81625488 10.60512695 27.87860352 10.97119141 28.97314453 C12.37976585 33.11730825 13.8982012 37.21550016 15.4375 41.3125 C18.19684801 48.71192203 20.80635225 56.15737353 23.375 63.625 C26.27123751 72.04419559 29.21706337 80.44156731 32.25 88.8125 C36.10450708 99.45733491 39.87593774 110.13019113 43.625 120.8125 C43.90752625 121.61730804 44.19005249 122.42211609 44.48114014 123.25131226 C47.04159284 130.54651188 49.59931081 137.84263884 52.140625 145.14453125 C55.1120332 153.67978665 58.15926261 162.17893171 61.30615234 170.65112305 C64.69112703 179.80298699 67.8618894 189.02873379 71.04882812 198.25097656 C76.82373754 214.94129485 82.73055081 231.58591906 88.6126709 248.23866272 C90.44037254 253.41362083 92.26569488 258.58941361 94.08984375 263.765625 C98.72440612 276.91452729 103.36921695 290.05940934 108.0625 303.1875 C108.45687256 304.29319336 108.85124512 305.39888672 109.25756836 306.53808594 C111.26081641 312.15156983 113.27374021 317.76128584 115.30647278 323.364151 C116.35112019 326.24737144 117.38974519 329.13274122 118.42745972 332.01846313 C118.93131303 333.41494907 119.43789591 334.8104534 119.94729614 336.20492554 C120.65274987 338.13681168 121.34886184 340.0718261 122.04296875 342.0078125 C122.44539795 343.11785645 122.84782715 344.22790039 123.26245117 345.37158203 C124 348 124 348 123 350 C122.34 349.67 121.68 349.34 121 349 C121 432.82 121 516.64 121 603 C110.77 603.33 100.54 603.66 90 604 C81.2968558 604.58265647 81.2968558 604.58265647 72.61010742 605.30224609 C70.34427963 605.50848505 68.07759895 605.7022505 65.81054688 605.89453125 C59.83003083 606.41277312 53.9224832 607.00682586 48 608 C46.14794974 608.17847328 44.29345518 608.33303608 42.4375 608.46484375 C41.39980469 608.5417041 40.36210937 608.61856445 39.29296875 608.69775391 C38.20628906 608.77687012 37.11960937 608.85598633 36 608.9375 C27.95302076 609.54427194 20.01826783 610.2574803 12.0625 611.6328125 C8.06841033 612.1116957 4.02269579 612 0 612 C0 410.04 0 208.08 0 0 Z " fill="#AA050F" transform="translate(350,211)"/>
<path d="M0 0 C2 1 2 1 2.6328125 2.84765625 C2.87644531 3.94400391 2.87644531 3.94400391 3.125 5.0625 C3.29257812 5.79597656 3.46015625 6.52945313 3.6328125 7.28515625 C3.75398438 7.85105469 3.87515625 8.41695312 4 9 C3.01 8.67 2.02 8.34 1 8 C1 91.82 1 175.64 1 262 C-6.59 262 -14.18 262 -22 262 C-22 261.67 -22 261.34 -22 261 C-14.74 261 -7.48 261 0 261 C0 174.87 0 88.74 0 0 Z " fill="#6A0208" transform="translate(470,552)"/>
<path d="M0 0 C2 1 2 1 2.6328125 2.84765625 C2.79523438 3.57855469 2.95765625 4.30945313 3.125 5.0625 C3.29257812 5.79597656 3.46015625 6.52945313 3.6328125 7.28515625 C3.75398438 7.85105469 3.87515625 8.41695312 4 9 C3.01 8.67 2.02 8.34 1 8 C1 22.19 1 36.38 1 51 C0.67 51 0.34 51 0 51 C0 34.17 0 17.34 0 0 Z " fill="#510208" transform="translate(470,552)"/>
<path d="M0 0 C0 3 0 3 -1.37695312 4.7175293 C-2.00537109 5.33023682 -2.63378906 5.94294434 -3.28125 6.57421875 C-3.95800781 7.24130859 -4.63476562 7.90839844 -5.33203125 8.59570312 C-6.04746094 9.28599609 -6.76289063 9.97628906 -7.5 10.6875 C-8.57314453 11.7403418 -8.57314453 11.7403418 -9.66796875 12.81445312 C-11.43879577 14.54986361 -13.21623456 16.2779073 -15 18 C-15.66 17.67 -16.32 17.34 -17 17 C-15.29657414 15.09955869 -13.58752883 13.20471126 -11.875 11.3125 C-11.400625 10.78205078 -10.92625 10.25160156 -10.4375 9.70507812 C-7.18500869 6.12294242 -3.77952775 3.02250068 0 0 Z " fill="#C3171F" transform="translate(204,190)"/>
<path d="M0 0 C0.33 0 0.66 0 1 0 C1 2.64 1 5.28 1 8 C1.66 8 2.32 8 3 8 C3.33 11.3 3.66 14.6 4 18 C1.3792944 16.6896472 1.27084434 15.66293782 0.3125 12.9375 C-1.20250563 8.21068245 -0.96584236 4.82921178 0 0 Z " fill="#9A040E" transform="translate(674,777)"/>
</svg>
