<?xml version="1.0" encoding="UTF-8"?>
<svg version="1.1" xmlns="http://www.w3.org/2000/svg" width="800" height="244">
<path d="M0 0 C10.56 0 21.12 0 32 0 C35.23026378 7.75263307 38.32202567 15.42367531 41.1171875 23.32421875 C41.49626251 24.38639114 41.87533752 25.44856354 42.26589966 26.54292297 C43.47193002 29.92338984 44.67380789 33.30531125 45.875 36.6875 C54.11064854 59.8441442 62.55495361 82.9168732 71 106 C71.33 71.02 71.66 36.04 72 0 C82.89 0 93.78 0 105 0 C105 63.03 105 126.06 105 191 C78 194 78 194 68 194 C66.62369882 190.0212823 65.24907058 186.04198858 63.875 182.0625 C63.65780304 181.43363892 63.44060608 180.80477783 63.21682739 180.15686035 C60.30359656 171.71919002 57.40901202 163.27538432 54.53515625 154.82421875 C54.23774536 153.95036026 53.94033447 153.07650177 53.63391113 152.17616272 C51.20604708 145.04253122 51.20604708 145.04253122 50.09295654 141.75759888 C45.23989772 127.43563151 40.12381734 113.23282594 35 99 C34.67 132 34.34 165 34 199 C7 203 7 203 0 203 C0 136.01 0 69.02 0 0 Z " fill="#E50914" transform="translate(25,24)"/>
<path d="M0 0 C11.88 0 23.76 0 36 0 C38.90742237 6.97781369 41.8061212 13.93697349 44.55078125 20.9765625 C44.85445114 21.7538974 45.15812103 22.5312323 45.47099304 23.3321228 C46.1009681 24.94654259 46.73018484 26.56125848 47.35864258 28.17626953 C48.32482494 30.65664043 49.2961589 33.13495738 50.26757812 35.61328125 C50.88312665 37.19258593 51.4983726 38.77200858 52.11328125 40.3515625 C52.54910271 41.46079575 52.54910271 41.46079575 52.99372864 42.59243774 C55 47.77128656 55 47.77128656 55 50 C55.66 50 56.32 50 57 50 C57.17631958 49.44688644 57.35263916 48.89377289 57.53430176 48.32389832 C59.26954626 42.98625369 61.23946452 37.82461771 63.46875 32.67578125 C63.95112122 31.55093575 63.95112122 31.55093575 64.4432373 30.40336609 C65.11717344 28.83384358 65.79285012 27.26506736 66.47021484 25.69702148 C67.50126862 23.30956245 68.52645045 20.919647 69.55078125 18.52929688 C70.21059539 16.99464453 70.87074024 15.46013433 71.53125 13.92578125 C71.83446167 13.21940018 72.13767334 12.5130191 72.45007324 11.78523254 C72.88567566 10.77839668 72.88567566 10.77839668 73.33007812 9.7512207 C73.70622253 8.87926811 73.70622253 8.87926811 74.08996582 7.98970032 C75.3232263 5.29329745 76.67398945 2.65202109 78 0 C89.88 0 101.76 0 114 0 C113.06385656 4.68071722 111.59472847 8.62185743 109.703125 12.953125 C109.36111557 13.74489639 109.01910614 14.53666779 108.66673279 15.35243225 C107.92140856 17.07758869 107.17438543 18.80201191 106.4258728 20.52578735 C105.23219844 23.2912419 104.059024 26.06466494 102.88989258 28.84057617 C98.93579944 38.1805775 94.85909276 47.4055002 90.32998657 56.48300171 C76.58555112 80.75550216 76.58555112 80.75550216 75.53271484 107.23779297 C77.34036163 111.25672413 79.38156358 115.08299811 81.63531494 118.86999512 C86.69040913 127.52172757 89.83762804 137.05971673 93.33309937 146.41644287 C95.3413792 151.75985811 97.41904613 157.07602481 99.4921875 162.39453125 C100.27462088 164.40958768 101.05685362 166.42472202 101.83886719 168.43994141 C103.44284279 172.56901278 105.05129701 176.69630487 106.66352844 180.82215881 C107.84138918 183.83852602 109.01386489 186.85698662 110.1875 189.875 C110.59105713 190.90069092 110.99461426 191.92638184 111.41040039 192.9831543 C111.76352295 193.89363525 112.11664551 194.80411621 112.48046875 195.7421875 C112.92749146 196.88469971 112.92749146 196.88469971 113.38354492 198.05029297 C114 200 114 200 114 203 C105.73382316 202.54769976 97.57499736 201.61257929 89.375 200.5 C88.40288574 200.36940186 87.43077148 200.23880371 86.42919922 200.10424805 C85.51154785 199.97703369 84.59389648 199.84981934 83.6484375 199.71875 C82.41359619 199.54762695 82.41359619 199.54762695 81.15380859 199.37304688 C79 199 79 199 76 198 C74.84872437 195.84315491 74.84872437 195.84315491 73.74755859 192.96118164 C73.33057709 191.88659195 72.91359558 190.81200226 72.48397827 189.70484924 C71.82288559 187.95022621 71.82288559 187.95022621 71.1484375 186.16015625 C70.68893707 184.96772812 70.22943665 183.77529999 69.75601196 182.54673767 C68.53503836 179.37266048 67.3239106 176.1951782 66.11749268 173.01556396 C64.88802175 169.78154503 63.64693539 166.55199531 62.40625 163.32226562 C61.01302063 159.69432054 59.62143049 156.06584011 58.23812866 152.43409729 C57.82745148 151.35635544 57.41677429 150.27861359 56.99365234 149.16821289 C56.45096207 147.74044273 56.45096207 147.74044273 55.89730835 146.28382874 C55.04661153 144.01892196 55.04661153 144.01892196 54 142 C46.62912394 158.98401955 39.27282721 175.97369134 32 193 C23.89801844 192.49775644 15.82464207 191.82765657 7.75 191 C6.49932739 190.8755249 6.49932739 190.8755249 5.22338867 190.74853516 C-0.76130345 190.11934827 -0.76130345 190.11934827 -3 189 C-0.42075671 180.64509407 3.02883834 172.69991263 6.5 164.6875 C7.15032682 163.17828907 7.80030173 161.66892646 8.44995117 160.15942383 C11.89880508 152.15215225 15.3664044 144.15298851 18.83267212 136.15324402 C20.56764917 132.14829123 22.3011104 128.14268286 24.03466797 124.13711548 C25.29690949 121.22348751 26.56237784 118.31127635 27.828125 115.39916992 C28.61078538 113.59298312 29.39334245 111.78675155 30.17578125 109.98046875 C30.53348099 109.16002075 30.89118073 108.33957275 31.25971985 107.4942627 C31.90941229 105.99153333 32.54903899 104.48439271 33.17623901 102.97213745 C33.88237599 101.28159954 34.63932656 99.61244267 35.40600586 97.94848633 C36.25130323 93.7525733 34.89521637 90.67772323 33.328125 86.84375 C33.01873993 86.04419388 32.70935486 85.24463776 32.39059448 84.42085266 C31.36120868 81.77335601 30.30569338 79.13710421 29.25 76.5 C28.52544145 74.65001304 27.80265237 72.79933218 27.08154297 70.94799805 C25.14754541 65.99546575 23.19146961 61.05193588 21.2310791 56.10980225 C18.72224502 49.77229082 16.23945788 43.42453656 13.75488281 37.07748413 C11.76593421 31.99671374 9.77287319 26.91770819 7.76660156 21.84375 C7.3956839 20.90234665 7.02476624 19.9609433 6.64260864 18.99101257 C5.95172829 17.2375623 5.25845114 15.48505355 4.56222534 13.73371887 C4.25310211 12.94736557 3.94397888 12.16101227 3.62548828 11.35083008 C3.35842072 10.6758699 3.09135315 10.00090973 2.81619263 9.30549622 C1.73466858 6.25051936 0.89030747 3.11607613 0 0 Z " fill="#E50914" transform="translate(663,24)"/>
<path d="M0 0 C29.37 0 58.74 0 89 0 C89 10.89 89 21.78 89 33 C70.52 33 52.04 33 33 33 C33 46.53 33 60.06 33 74 C36.75375 73.835 40.5075 73.67 44.375 73.5 C54.93011578 73.057346 65.43650416 72.91123113 76 73 C76 83.89 76 94.78 76 106 C72.431875 106.165 68.86375 106.33 65.1875 106.5 C64.10750732 106.55220703 63.02751465 106.60441406 61.91479492 106.65820312 C52.2478552 107.08160954 42.71367495 107 33 107 C33 121.85 33 136.7 33 152 C41.91 151.01 41.91 151.01 51 150 C56.20997428 149.58988541 61.41060585 149.20461455 66.625 148.875 C67.90761719 148.78863281 69.19023437 148.70226562 70.51171875 148.61328125 C76.71179526 148.20934659 82.77262362 148 89 148 C89 158.89 89 169.78 89 181 C85.40994924 181.71801015 82.23923302 182.20248715 78.62841797 182.44897461 C77.57476044 182.5225267 76.52110291 182.5960788 75.43551636 182.67185974 C74.29921783 182.74791946 73.16291931 182.82397919 71.9921875 182.90234375 C70.79812286 182.98496964 69.60405823 183.06759552 68.37380981 183.15272522 C64.54107566 183.41736468 60.70805839 183.677603 56.875 183.9375 C53.12055888 184.1947036 49.36618473 184.45285603 45.61184692 184.71156311 C43.28174031 184.87184158 40.95156816 185.0311726 38.62130737 185.18919373 C25.74285417 186.06882658 12.87403271 187.04636795 0 188 C0 125.96 0 63.92 0 0 Z " fill="#E50914" transform="translate(159,24)"/>
<path d="M0 0 C29.7 0 59.4 0 90 0 C90 10.89 90 21.78 90 33 C71.19 33 52.38 33 33 33 C33 45.87 33 58.74 33 72 C47.19 72 61.38 72 76 72 C76 82.89 76 93.78 76 105 C61.81 105 47.62 105 33 105 C33 128.76 33 152.52 33 177 C22.11 177 11.22 177 0 177 C0 118.59 0 60.18 0 0 Z " fill="#E50914" transform="translate(385,24)"/>
<path d="M0 0 C32.67 0 65.34 0 99 0 C99 10.89 99 21.78 99 33 C88.11 33 77.22 33 66 33 C66 80.85 66 128.7 66 178 C49.665 178.495 49.665 178.495 33 179 C33 130.82 33 82.64 33 33 C22.11 33 11.22 33 0 33 C0 22.11 0 11.22 0 0 Z " fill="#E50914" transform="translate(267,24)"/>
<path d="M0 0 C10.89 0 21.78 0 33 0 C33 48.51 33 97.02 33 147 C38.61 147 44.22 147 50 147 C53.09244428 147.10148121 56.16099376 147.21578367 59.24609375 147.40234375 C59.99415787 147.44436417 60.74222198 147.48638458 61.51295471 147.52967834 C63.05084633 147.61727842 64.58860752 147.70720205 66.1262207 147.79956055 C68.4880903 147.94051928 70.85039192 148.07122598 73.21289062 148.20117188 C74.72399281 148.28846776 76.2350621 148.3763353 77.74609375 148.46484375 C78.44802353 148.50343002 79.14995331 148.5420163 79.87315369 148.58177185 C84.76968697 148.88484348 84.76968697 148.88484348 87 150 C87 160.89 87 171.78 87 183 C83.18695312 182.79503906 79.37390625 182.59007812 75.4453125 182.37890625 C71.6552979 182.17653934 67.86524846 181.97483699 64.07519531 181.77319336 C61.48824433 181.63521198 58.90132872 181.49656538 56.31445312 181.35717773 C52.54566884 181.15423192 48.77678464 180.9533323 45.0078125 180.75390625 C43.76332336 180.68805328 42.51883423 180.62220032 41.2366333 180.55435181 C31.51584192 180.05193827 21.79300556 179.66118539 12.06375122 179.36390686 C11.0589975 179.33010422 10.05424377 179.29630157 9.01904297 179.26147461 C7.70418411 179.22140541 7.70418411 179.22140541 6.36276245 179.18052673 C4 179 4 179 0 178 C0 119.26 0 60.52 0 0 Z " fill="#E50914" transform="translate(493,24)"/>
<path d="M0 0 C10.89 0 21.78 0 33 0 C33 61.71 33 123.42 33 187 C21.99228983 186.47582333 10.98211713 185.91517643 0 185 C0 123.95 0 62.9 0 0 Z " fill="#E50914" transform="translate(605,24)"/>
</svg>
